<svg width="30" height="31.4" viewBox="0 0 600 628" fill="none" xmlns="http://www.w3.org/2000/svg">
    <path fill-rule="evenodd" clip-rule="evenodd" d="M384.586 1.42707L37.7168 27.0805C9.73741 29.5077 0 47.8166 0 69.7664V450.55C0 467.645 6.05976 482.271 20.6868 501.815L102.222 607.985C115.616 625.081 127.798 628.742 153.375 627.529L556.182 603.11C590.242 600.683 600 584.801 600 557.955V129.568C600 115.696 594.525 111.699 578.415 99.8557C577.488 99.187 576.561 98.5175 575.636 97.847L464.93 19.736C438.142 0.234379 427.192 -2.23471 384.586 1.42707ZM162.485 122.559C129.595 124.777 122.136 125.279 103.455 110.067L55.9588 72.2354C51.1318 67.3391 53.5558 61.2292 65.7171 60.0156L399.171 35.6176C427.171 33.1695 441.757 42.9412 452.706 51.4784L509.898 92.9716C512.342 94.2061 518.423 101.509 511.11 101.509L166.748 122.266L162.485 122.559ZM497.757 210.128C500.181 221.113 497.757 232.098 486.787 233.354L468.545 236.974V505.476C452.706 514.014 438.121 518.889 425.939 518.889C406.464 518.889 401.595 512.779 387.01 494.491L267.716 306.548V488.381L305.454 496.939C305.454 496.939 305.454 518.91 275.009 518.91L191.071 523.785C188.626 518.889 191.071 506.69 199.575 504.263L221.495 498.174V257.752L191.071 255.283C188.626 244.297 194.706 228.437 211.757 227.202L301.818 221.134L425.939 411.505V243.084L394.302 239.443C391.858 225.988 401.595 216.217 413.756 215.024L497.757 210.128Z" fill="black" />
</svg>